<svg xmlns="http://www.w3.org/2000/svg" viewBox="0 0 480 190">
  
  <rect x="20" y="16" width="440" height="9" rx="2" fill="#F2A33C"></rect>
  <g fill="#171B23">
    <rect x="50.5" y="37" width="88" height="124" rx="9"></rect>
    <rect x="147.5" y="37" width="88" height="124" rx="9"></rect>
    <rect x="244.5" y="37" width="88" height="124" rx="9"></rect>
    <rect x="341.5" y="37" width="88" height="124" rx="9"></rect>
  </g>
  <g fill="#F4F1EA">
    <path d="M76.05 87.82L76.05 82.03Q76.05 74.67 81.02 70.66Q85.99 66.66 95.33 66.66Q104.67 66.66 109.27 68.59L109.27 68.59L109.27 81.84Q103.65 79.45 96.48 79.45L96.48 79.45Q92.80 79.45 91.51 80.60Q90.22 81.75 90.22 83.87L90.22 83.87L90.22 85.25Q90.22 87.82 91.10 89.06Q91.97 90.31 94.91 91.87L94.91 91.87L105.40 97.76Q112.95 101.90 112.95 110.18L112.95 110.18L112.95 115.88Q112.95 123.33 107.43 127.34Q101.91 131.34 91.92 131.34Q81.94 131.34 76.88 129.22L76.88 129.22L76.88 115.88Q83.14 118.55 91.05 118.55Q98.96 118.55 98.96 114.04L98.96 114.04L98.96 112.66Q98.96 110.55 98.09 109.49Q97.21 108.43 94.82 107.14L94.82 107.14L84.98 101.81Q76.05 96.84 76.05 87.82L76.05 87.82Z"></path>
    <path d="M213.53 130.88L200.38 130.88L197.71 116.16L185.11 116.16L182.62 130.88L169.47 130.88L181.98 67.12L201.21 67.12L213.53 130.88ZM191.27 79.82L187.04 104.47L195.69 104.47L191.27 79.82Z"></path>
    <path d="M306.95 81.75L306.95 81.75L306.95 87.73Q306.95 96.65 300.41 98.68L300.41 98.68Q307.50 100.33 307.50 109.72L307.50 109.72L307.50 116.25Q307.50 130.88 291.86 130.88L291.86 130.88L269.50 130.88L269.50 67.12L291.31 67.12Q306.95 67.12 306.95 81.75ZM289.01 78.71L289.01 78.71L283.30 78.71L283.30 92.61L289.01 92.61Q293.33 92.61 293.33 88.65L293.33 88.65L293.33 82.67Q293.33 78.71 289.01 78.71ZM293.88 115.33L293.88 115.33L293.88 108.80Q293.88 104.84 289.56 104.84L289.56 104.84L283.30 104.84L283.30 119.29L289.56 119.29Q293.88 119.29 293.88 115.33Z"></path>
    <path d="M390.70 114.78L390.70 81.84Q390.70 80.19 389.92 79.31Q389.13 78.44 386.93 78.44L386.93 78.44L380.30 78.44L380.30 119.01L386.93 119.01Q390.70 119.01 390.70 114.78L390.70 114.78ZM366.50 130.88L366.50 67.12L388.86 67.12Q396.31 67.12 400.40 70.71Q404.50 74.30 404.50 81.29L404.50 81.29L404.50 115.88Q404.50 130.88 389.69 130.88L389.69 130.88L366.50 130.88Z"></path>
  </g>
  <g fill="#0B0E12" opacity="0.4">
    <rect x="50.5" y="98" width="88" height="2"></rect>
    <rect x="147.5" y="98" width="88" height="2"></rect>
    <rect x="244.5" y="98" width="88" height="2"></rect>
    <rect x="341.5" y="98" width="88" height="2"></rect>
  </g>
</svg>