<svg xmlns="http://www.w3.org/2000/svg" viewBox="0 0 512 512">
  
  <rect width="512" height="512" fill="#14181F"></rect>
  <rect x="96" y="72" width="320" height="30" rx="6" fill="#F2A33C"></rect>
  <rect x="138" y="132" width="236" height="332" rx="24" fill="#1D222C"></rect>
  <path d="M208.68 269.33L208.68 254.46Q208.68 235.58 221.43 225.31Q234.17 215.05 258.12 215.05Q282.08 215.05 293.88 220.00L293.88 220.00L293.88 253.99Q279.48 247.85 261.07 247.85L261.07 247.85Q251.63 247.85 248.33 250.80Q245.03 253.75 245.03 259.18L245.03 259.18L245.03 262.72Q245.03 269.33 247.27 272.51Q249.51 275.70 257.06 279.71L257.06 279.71L283.97 294.81Q303.32 305.43 303.32 326.67L303.32 326.67L303.32 341.31Q303.32 360.42 289.16 370.69Q275.00 380.95 249.39 380.95Q223.79 380.95 210.81 375.53L210.81 375.53L210.81 341.31Q226.85 348.15 247.15 348.15Q267.45 348.15 267.45 336.59L267.45 336.59L267.45 333.05Q267.45 327.62 265.20 324.90Q262.96 322.19 256.83 318.89L256.83 318.89L231.57 305.20Q208.68 292.45 208.68 269.33L208.68 269.33Z" fill="#F4F1EA"></path>
  <rect x="138" y="295" width="236" height="6" fill="#0B0E12" opacity="0.4"></rect>
</svg>